HIERARCHY
ROOT Hips
{
 OFFSET 0.000000 0.000000 0.000000
 CHANNELS 6 Xposition Yposition Zposition Yrotation Xrotation Zrotation
 JOINT Chest
 {
  OFFSET 0.000000 9.910571 -0.011835
  CHANNELS 3 Yrotation Xrotation Zrotation
  JOINT Chest2
  {
   OFFSET 0.000000 10.789473 0.021497
   CHANNELS 3 Yrotation Xrotation Zrotation
   JOINT Chest3
   {
    OFFSET 0.000000 9.748205 0.000000
    CHANNELS 3 Yrotation Xrotation Zrotation
    JOINT Chest4
    {
     OFFSET 0.000000 9.748205 0.000000
     CHANNELS 3 Yrotation Xrotation Zrotation
     JOINT Neck
     {
      OFFSET 0.000000 13.998479 0.000000
      CHANNELS 3 Yrotation Xrotation Zrotation
      JOINT Head
      {
       OFFSET 0.000000 9.082285 0.051121
       CHANNELS 3 Yrotation Xrotation Zrotation
       End Site
       {
        OFFSET 0.000000 17.246134 0.026702
       }
      }
     }
     JOINT RightCollar
     {
      OFFSET -3.284495 7.824262 0.000000
      CHANNELS 3 Yrotation Xrotation Zrotation
      JOINT RightShoulder
      {
       OFFSET -15.534540 0.000000 0.000000
       CHANNELS 3 Yrotation Xrotation Zrotation
       JOINT RightElbow
       {
        OFFSET 0.000000 -28.251216 0.000000
        CHANNELS 3 Yrotation Xrotation Zrotation
        JOINT RightWrist
        {
         OFFSET 0.000000 -23.418114 0.012537
         CHANNELS 3 Yrotation Xrotation Zrotation
         End Site
         {
          OFFSET 0.000000 -17.723959 0.000000
         }
        }
       }
      }
     }
     JOINT LeftCollar
     {
      OFFSET 3.284495 7.824262 0.000000
      CHANNELS 3 Yrotation Xrotation Zrotation
      JOINT LeftShoulder
      {
       OFFSET 15.534540 0.000000 0.000000
       CHANNELS 3 Yrotation Xrotation Zrotation
       JOINT LeftElbow
       {
        OFFSET 0.000000 -28.251216 0.000000
        CHANNELS 3 Yrotation Xrotation Zrotation
        JOINT LeftWrist
        {
         OFFSET 0.000000 -23.418114 0.012537
         CHANNELS 3 Yrotation Xrotation Zrotation
         End Site
         {
          OFFSET 0.000000 -17.723959 0.000000
         }
        }
       }
      }
     }
    }
   }
  }
 }
 JOINT RightHip
 {
  OFFSET -8.142657 0.057990 0.005917
  CHANNELS 3 Yrotation Xrotation Zrotation
  JOINT RightKnee
  {
   OFFSET 0.000000 -49.716894 0.008478
   CHANNELS 3 Yrotation Xrotation Zrotation
   JOINT RightAnkle
   {
    OFFSET 0.000000 -43.994153 0.004166
    CHANNELS 3 Yrotation Xrotation Zrotation
    JOINT RightToe
    {
     OFFSET 0.000000 -7.619154 17.822051
     CHANNELS 3 Yrotation Xrotation Zrotation
     End Site
     {
      OFFSET 0.000000 -1.595627 7.159905
     }
    }
   }
  }
 }
 JOINT LeftHip
 {
  OFFSET 8.142657 0.057990 0.005917
  CHANNELS 3 Yrotation Xrotation Zrotation
  JOINT LeftKnee
  {
   OFFSET 0.000000 -49.716894 0.008478
   CHANNELS 3 Yrotation Xrotation Zrotation
   JOINT LeftAnkle
   {
    OFFSET 0.000000 -43.994153 0.004166
    CHANNELS 3 Yrotation Xrotation Zrotation
    JOINT LeftToe
    {
     OFFSET 0.000000 -7.619154 17.822051
     CHANNELS 3 Yrotation Xrotation Zrotation
     End Site
     {
      OFFSET 0.000000 -1.595627 7.159905
     }
    }
   }
  }
 }
}
MOTION
Frames: 16
Frame Time: 0.008333
245.326498 56.676854 263.982237 -53.594507 -55.796394 2.536881 -2.083775 21.360148 -1.601273 -0.777682 9.489050 -0.672951 -0.777682 9.489050 -0.672951 -0.571387 7.117664 -0.491380 1.187561 18.748337 0.464199 2.027830 -1.366475 0.466646 -1.284013 9.365945 12.657775 24.612767 -18.282423 -24.815735 -4.701956 -43.364567 34.864412 2.100370 -9.419876 -9.123687 -1.230137 10.900158 -9.916991 -8.094940 -19.223988 17.691573 19.751656 -45.412130 -34.668039 -1.125145 3.264168 -6.979899 -7.535035 -31.342455 -9.336667 -92.784494 73.685742 -108.217598 -3.066040 -4.757593 6.926370 0.042794 0.257920 0.021849 4.470723 -31.818135 11.983446 77.013507 85.136892 79.477188 -1.015837 1.048156 -1.091351 -0.060625 -0.198110 -0.024682
245.324879 56.677064 263.980162 -53.593469 -55.801899 2.539754 -2.086650 21.364485 -1.604740 -0.777906 9.489107 -0.672849 -0.777906 9.489107 -0.672849 -0.571556 7.117708 -0.491300 1.124118 18.747909 0.422407 1.925007 -1.367176 0.410541 -1.291209 9.369354 12.659882 24.619351 -18.281257 -24.811187 -4.704048 -43.367636 34.859940 2.102238 -9.413703 -9.119565 -1.227928 10.899100 -9.918969 -8.096147 -19.216790 17.690950 19.706465 -45.423110 -34.691226 -1.093634 3.251580 -6.925831 -7.539879 -31.337878 -9.338186 -92.787894 73.679654 -108.227291 -3.057962 -4.763154 6.928888 0.034844 0.259572 0.019370 4.466978 -31.810119 11.985892 77.000695 85.130518 79.460659 -1.027276 1.046627 -1.095562 -0.055418 -0.195332 -0.022023
245.323296 56.675996 263.977107 -53.589824 -55.802241 2.534830 -2.086088 21.363241 -1.598946 -0.777458 9.488902 -0.671268 -0.777458 9.488902 -0.671268 -0.571245 7.117551 -0.490124 1.046576 18.744950 0.377459 1.797355 -1.372647 0.353185 -1.301570 9.365879 12.661771 24.617086 -18.272462 -24.811690 -4.700551 -43.369801 34.858886 2.100828 -9.417355 -9.115689 -1.232460 10.900203 -9.925911 -8.104973 -19.211454 17.693256 19.708557 -45.424019 -34.687869 -1.091742 3.247835 -6.925490 -7.552608 -31.338479 -9.332890 -92.777534 73.681598 -108.220301 -3.055370 -4.763283 6.924667 0.034877 0.260921 0.017774 4.454828 -31.812206 11.993232 77.021960 85.130693 79.477725 -1.026267 1.051347 -1.098065 -0.055587 -0.197578 -0.022397
245.321495 56.676034 263.975010 -53.594124 -55.805251 2.540936 -2.080584 21.365244 -1.594718 -0.776387 9.489371 -0.668751 -0.776387 9.489371 -0.668751 -0.570483 7.117899 -0.488257 0.958963 18.740442 0.330288 1.651959 -1.381046 0.295005 -1.314675 9.365599 12.658371 24.620506 -18.271288 -24.817177 -4.709168 -43.365673 34.865301 2.109793 -9.417579 -9.118577 -1.241726 10.903870 -9.934203 -8.118954 -19.216125 17.702553 19.664234 -45.422932 -34.716170 -1.046355 3.223181 -6.840538 -7.551182 -31.338723 -9.338988 -92.786493 73.681777 -108.229094 -3.043922 -4.761153 6.923802 0.029427 0.257191 0.014423 4.450236 -31.806066 11.998108 77.016768 85.126528 79.465905 -1.030635 1.048954 -1.099754 -0.050628 -0.194563 -0.021804
245.319291 56.674884 263.971922 -53.603188 -55.804392 2.551813 -2.078686 21.365123 -1.591454 -0.776518 9.489846 -0.667886 -0.776518 9.489846 -0.667886 -0.570594 7.118254 -0.487607 0.859121 18.736660 0.282813 1.484222 -1.388176 0.240246 -1.318981 9.363243 12.657028 24.620124 -18.268832 -24.822027 -4.712428 -43.369538 34.868756 2.113536 -9.416169 -9.115918 -1.241339 10.897378 -9.942586 -8.131386 -19.212958 17.707756 19.660935 -45.418924 -34.713748 -1.041722 3.216432 -6.834434 -7.542898 -31.341825 -9.338607 -92.795068 73.680296 -108.237631 -3.045807 -4.757712 6.923572 0.029478 0.255349 0.014432 4.449735 -31.805324 11.998511 77.003421 85.129096 79.449330 -1.024666 1.049724 -1.102386 -0.049464 -0.193792 -0.022309
245.318084 56.674509 263.969975 -53.601816 -55.804707 2.558086 -2.079952 21.367903 -1.591074 -0.776196 9.491338 -0.665871 -0.776196 9.491338 -0.665871 -0.570383 7.119370 -0.486102 0.747445 18.733517 0.231480 1.296026 -1.394149 0.182260 -1.330141 9.362857 12.653106 24.622851 -18.277583 -24.822717 -4.703921 -43.363978 34.859768 2.122894 -9.419639 -9.108347 -1.257754 10.889461 -9.950128 -8.138707 -19.215406 17.708812 19.610421 -45.420667 -34.728316 -0.996723 3.194007 -6.766268 -7.543121 -31.342677 -9.343210 -92.814262 73.693042 -108.261409 -3.057093 -4.760851 6.926807 0.026027 0.256759 0.012761 4.447023 -31.803776 11.991664 76.964289 85.132996 79.407293 -1.015104 1.054739 -1.103141 -0.050562 -0.195065 -0.023528
245.315290 56.673574 263.967444 -53.596233 -55.805679 2.553480 -2.080558 21.367351 -1.586076 -0.776614 9.489849 -0.663796 -0.776614 9.489849 -0.663796 -0.570730 7.118251 -0.484545 0.621758 18.734377 0.177854 1.082856 -1.392735 0.124648 -1.336655 9.370837 12.653705 24.627568 -18.274297 -24.830735 -4.707225 -43.368065 34.861354 2.128722 -9.423799 -9.100523 -1.265204 10.896576 -9.957325 -8.147094 -19.217973 17.709587 19.602479 -45.417255 -34.716334 -0.992820 3.183559 -6.766127 -7.545354 -31.339515 -9.344216 -92.815548 73.690149 -108.259882 -3.049942 -4.769419 6.926971 0.022407 0.261694 0.010954 4.445442 -31.802476 11.991481 76.948248 85.132525 79.397396 -1.015873 1.050590 -1.110567 -0.046739 -0.190886 -0.020887
245.313021 56.673474 263.964265 -53.591876 -55.805052 2.549350 -2.078773 21.364809 -1.579983 -0.776180 9.489129 -0.661557 -0.776180 9.489129 -0.661557 -0.570441 7.117708 -0.482878 0.473605 18.732859 0.118703 0.830276 -1.395776 0.064170 -1.341641 9.378270 12.651800 24.627059 -18.278150 -24.836250 -4.709071 -43.362594 34.859860 2.134722 -9.427963 -9.093164 -1.266169 10.906806 -9.960912 -8.157835 -19.222096 17.711054 19.554691 -45.419278 -34.744809 -0.963327 3.168423 -6.709566 -7.553007 -31.339023 -9.339799 -92.804886 73.692822 -108.249262 -3.051011 -4.769943 6.923839 0.023224 0.262942 0.010143 4.439523 -31.803644 11.989891 76.952874 85.128852 79.406533 -1.009809 1.051731 -1.116584 -0.050042 -0.190964 -0.021720
245.311158 56.673081 263.963200 -53.587643 -55.805907 2.547237 -2.080193 21.362556 -1.578791 -0.777126 9.487796 -0.661098 -0.777126 9.487796 -0.661098 -0.571158 7.116709 -0.482521 0.314457 18.730351 0.058589 0.557838 -1.400655 0.005496 -1.342345 9.388545 12.650634 24.627699 -18.278938 -24.838582 -4.722363 -43.367913 34.872982 2.136126 -9.428408 -9.092984 -1.265274 10.918716 -9.960769 -8.165553 -19.227576 17.707467 19.550961 -45.417353 -34.741839 -0.956517 3.164075 -6.707258 -7.558473 -31.338769 -9.339462 -92.811515 73.696023 -108.258995 -3.050827 -4.771895 6.924752 0.019424 0.262500 0.009010 4.430189 -31.802462 11.989134 77.005703 85.122857 79.457898 -1.010003 1.048413 -1.119656 -0.049301 -0.189988 -0.023183
245.309583 56.672934 263.962665 -53.580821 -55.804938 2.546103 -2.079288 21.362142 -1.573074 -0.778243 9.488001 -0.659510 -0.778243 9.488001 -0.659510 -0.572019 7.116861 -0.481315 0.136957 18.720059 -0.009531 0.254339 -1.419957 -0.061921 -1.348107 9.389720 12.640330 24.624145 -18.283484 -24.834673 -4.722810 -43.362022 34.867261 2.141473 -9.428501 -9.092534 -1.282409 10.921052 -9.969638 -8.159854 -19.229443 17.709420 19.518219 -45.417569 -34.776691 -0.922205 3.136882 -6.629530 -7.557778 -31.341311 -9.344655 -92.815722 73.692433 -108.261720 -3.047191 -4.768501 6.923495 0.019230 0.258529 0.009642 4.422950 -31.802291 11.986208 77.021028 85.127709 79.467774 -1.000409 1.044982 -1.117694 -0.048726 -0.188794 -0.024276
245.308088 56.673042 263.961470 -53.578656 -55.804306 2.544098 -2.079105 21.362730 -1.572540 -0.779238 9.488851 -0.658063 -0.779238 9.488851 -0.658063 -0.572785 7.117498 -0.480215 -0.055458 18.708219 -0.082743 -0.074884 -1.442089 -0.133797 -1.351147 9.391786 12.635096 24.627455 -18.288616 -24.835372 -4.722593 -43.363166 34.870780 2.135212 -9.430613 -9.091177 -1.284592 10.917945 -9.965032 -8.160933 -19.231193 17.706513 19.527009 -45.407677 -34.781738 -0.923934 3.123493 -6.631510 -7.556407 -31.343219 -9.345442 -92.819442 73.691750 -108.262817 -3.042686 -4.762773 6.920900 0.018241 0.253473 0.010320 4.415917 -31.799403 11.989136 76.984379 85.127484 79.428706 -0.998740 1.041662 -1.122059 -0.046983 -0.185321 -0.022513
245.306121 56.672754 263.960474 -53.567571 -55.799974 2.534799 -2.080143 21.365130 -1.569793 -0.780819 9.489347 -0.657743 -0.780819 9.489347 -0.657743 -0.573972 7.117871 -0.479950 -0.263502 18.691981 -0.160086 -0.431455 -1.472320 -0.208118 -1.351484 9.386154 12.635883 24.622168 -18.287207 -24.834114 -4.716571 -43.365369 34.872128 2.132233 -9.431726 -9.087526 -1.284765 10.910521 -9.961186 -8.156979 -19.229487 17.705581 19.476876 -45.409279 -34.811091 -0.883213 3.108593 -6.556261 -7.565758 -31.348829 -9.341948 -92.821810 73.689920 -108.269424 -3.037010 -4.760694 6.921439 0.017599 0.250564 0.010321 4.410889 -31.803804 11.988893 77.014516 85.118596 79.464441 -1.014956 1.036670 -1.126836 -0.044085 -0.182826 -0.022000
245.304649 56.672630 263.959381 -53.566692 -55.797716 2.537682 -2.081805 21.363867 -1.572964 -0.781532 9.489957 -0.659038 -0.781532 9.489957 -0.659038 -0.574484 7.118331 -0.480907 -0.487055 18.674100 -0.241552 -0.815172 -1.505506 -0.284886 -1.350012 9.387001 12.636479 24.620753 -18.285091 -24.832306 -4.716067 -43.371976 34.873845 2.130784 -9.434211 -9.086149 -1.282516 10.908002 -9.952355 -8.156502 -19.226690 17.705264 19.476566 -45.406163 -34.817003 -0.878990 3.104226 -6.550616 -7.562968 -31.352023 -9.347297 -92.824704 73.691401 -108.272065 -3.030399 -4.758194 6.922603 0.014642 0.248064 0.008509 4.410109 -31.806289 11.988740 77.020006 85.120111 79.467657 -1.018398 1.038396 -1.127568 -0.042511 -0.185333 -0.020563
245.304240 56.670883 263.959630 -53.566636 -55.790909 2.534891 -2.082762 21.361229 -1.574203 -0.782545 9.490199 -0.658318 -0.782545 9.490199 -0.658318 -0.575253 7.118513 -0.480352 -0.724580 18.654411 -0.330902 -1.222000 -1.541952 -0.371479 -1.347314 9.391185 12.629786 24.612391 -18.291110 -24.832107 -4.720139 -43.375131 34.880244 2.141182 -9.436731 -9.078332 -1.270471 10.906559 -9.947482 -8.152745 -19.228060 17.703342 19.434790 -45.411381 -34.856503 -0.853297 3.096498 -6.491222 -7.560841 -31.361050 -9.343765 -92.824846 73.684738 -108.273485 -3.018535 -4.752092 6.926216 0.011990 0.243594 0.007061 4.409877 -31.816030 11.991309 77.086491 85.122309 79.533410 -1.012823 1.034131 -1.125081 -0.046975 -0.185596 -0.020748
245.303890 56.670287 263.960295 -53.565446 -55.791025 2.534977 -2.082640 21.359163 -1.573676 -0.782726 9.489183 -0.658743 -0.782726 9.489183 -0.658743 -0.575383 7.117752 -0.480669 -0.978503 18.635566 -0.423798 -1.657801 -1.576675 -0.459154 -1.356685 9.398668 12.626573 24.617948 -18.291593 -24.831293 -4.717195 -43.374442 34.883391 2.142227 -9.439843 -9.081882 -1.267700 10.914371 -9.936845 -8.158359 -19.227288 17.696439 19.432872 -45.415088 -34.852736 -0.854627 3.090987 -6.491579 -7.558843 -31.360398 -9.344555 -92.819034 73.686058 -108.268737 -3.021134 -4.749458 6.928243 0.010983 0.244053 0.007070 4.411250 -31.816411 11.987933 77.106387 85.119262 79.556955 -1.015883 1.031924 -1.129469 -0.045423 -0.185434 -0.018905
245.302304 56.669940 263.959680 -53.560993 -55.789854 2.530145 -2.081615 21.359432 -1.571007 -0.783661 9.488713 -0.659640 -0.783661 9.488713 -0.659640 -0.576069 7.117401 -0.481327 -1.245127 18.610204 -0.523658 -2.114706 -1.623368 -0.555297 -1.356942 9.399705 12.626181 24.620078 -18.289076 -24.830652 -4.712742 -43.376570 34.884396 2.144238 -9.444415 -9.091064 -1.265304 10.921968 -9.927330 -8.161083 -19.233298 17.691977 19.382909 -45.416062 -34.878144 -0.825338 3.067926 -6.435888 -7.565078 -31.363411 -9.337659 -92.828032 73.682028 -108.277825 -3.026673 -4.748732 6.921752 0.018357 0.242610 0.010748 4.404646 -31.816491 11.990286 77.068876 85.137011 79.520496 -0.996154 1.028915 -1.134393 -0.042981 -0.183728 -0.018205
